<svg width="32" height="32" viewBox="0 0 32 32" fill="none" xmlns="http://www.w3.org/2000/svg">
<mask id="path-1-inside-1_851_186" fill="white">
<path fill-rule="evenodd" clip-rule="evenodd" d="M4 6C4 4.89543 4.89543 4 6 4H26C27.1046 4 28 4.89543 28 6V19.1429C28 20.2474 27.1046 21.1429 26 21.1429H6C4.89543 21.1429 4 20.2474 4 19.1429V6ZM9.29343 15.1426C9.29343 14.8665 9.51729 14.6426 9.79343 14.6426H22.2072C22.4834 14.6426 22.7072 14.8665 22.7072 15.1426C22.7072 15.4187 22.4834 15.6426 22.2072 15.6426H9.79343C9.51729 15.6426 9.29343 15.4187 9.29343 15.1426ZM9.7932 10.357C9.51706 10.357 9.2932 10.5809 9.2932 10.857C9.2932 11.1332 9.51706 11.357 9.7932 11.357H22.207C22.4831 11.357 22.707 11.1332 22.707 10.857C22.707 10.5809 22.4831 10.357 22.207 10.357H9.7932Z"/>
</mask>
<path fill-rule="evenodd" clip-rule="evenodd" d="M4 6C4 4.89543 4.89543 4 6 4H26C27.1046 4 28 4.89543 28 6V19.1429C28 20.2474 27.1046 21.1429 26 21.1429H6C4.89543 21.1429 4 20.2474 4 19.1429V6ZM9.29343 15.1426C9.29343 14.8665 9.51729 14.6426 9.79343 14.6426H22.2072C22.4834 14.6426 22.7072 14.8665 22.7072 15.1426C22.7072 15.4187 22.4834 15.6426 22.2072 15.6426H9.79343C9.51729 15.6426 9.29343 15.4187 9.29343 15.1426ZM9.7932 10.357C9.51706 10.357 9.2932 10.5809 9.2932 10.857C9.2932 11.1332 9.51706 11.357 9.7932 11.357H22.207C22.4831 11.357 22.707 11.1332 22.707 10.857C22.707 10.5809 22.4831 10.357 22.207 10.357H9.7932Z" fill="#597AAF"/>
<path d="M6 2C3.79086 2 2 3.79086 2 6H6V6V2ZM26 2H6V6H26V2ZM30 6C30 3.79086 28.2091 2 26 2V6H30ZM30 19.1429V6H26V19.1429H30ZM26 23.1429C28.2091 23.1429 30 21.352 30 19.1429H26V19.1429V23.1429ZM6 23.1429H26V19.1429H6V23.1429ZM2 19.1429C2 21.352 3.79086 23.1429 6 23.1429V19.1429H6H2ZM2 6V19.1429H6V6H2ZM9.79343 12.6426C8.41272 12.6426 7.29343 13.7619 7.29343 15.1426H11.2934C11.2934 15.971 10.6219 16.6426 9.79343 16.6426V12.6426ZM22.2072 12.6426H9.79343V16.6426H22.2072V12.6426ZM24.7072 15.1426C24.7072 13.7619 23.5879 12.6426 22.2072 12.6426V16.6426C21.3788 16.6426 20.7072 15.971 20.7072 15.1426H24.7072ZM22.2072 17.6426C23.5879 17.6426 24.7072 16.5233 24.7072 15.1426H20.7072C20.7072 14.3142 21.3788 13.6426 22.2072 13.6426V17.6426ZM9.79343 17.6426H22.2072V13.6426H9.79343V17.6426ZM7.29343 15.1426C7.29343 16.5233 8.41272 17.6426 9.79343 17.6426V13.6426C10.6219 13.6426 11.2934 14.3142 11.2934 15.1426H7.29343ZM11.2932 10.857C11.2932 11.6854 10.6216 12.357 9.7932 12.357V8.35702C8.41249 8.35702 7.2932 9.47631 7.2932 10.857H11.2932ZM9.7932 9.35702C10.6216 9.35702 11.2932 10.0286 11.2932 10.857H7.2932C7.2932 12.2377 8.41249 13.357 9.7932 13.357V9.35702ZM22.207 9.35702H9.7932V13.357H22.207V9.35702ZM20.707 10.857C20.707 10.0286 21.3786 9.35702 22.207 9.35702V13.357C23.5877 13.357 24.707 12.2377 24.707 10.857H20.707ZM22.207 12.357C21.3786 12.357 20.707 11.6854 20.707 10.857H24.707C24.707 9.47631 23.5877 8.35702 22.207 8.35702V12.357ZM9.7932 12.357H22.207V8.35702H9.7932V12.357Z" fill="#597AAF" mask="url(#path-1-inside-1_851_186)"/>
<path d="M15 21H17V27H15V21Z" stroke="#597AAF" stroke-width="2"/>
</svg>
