<svg width="29" height="29" viewBox="0 0 29 29" fill="none" xmlns="http://www.w3.org/2000/svg">
<mask id="mask0_161_2740" style="mask-type:alpha" maskUnits="userSpaceOnUse" x="0" y="0" width="29" height="29">
<rect width="29" height="29" fill="#D9D9D9"/>
</mask>
<g mask="url(#mask0_161_2740)">
<path d="M23.1458 10.6458V8.22914H20.7291V6.41667H23.1458V4H24.9583V6.41667H27.3749V8.22914H24.9583V10.6458H23.1458ZM13.4791 22.8685C14.8656 22.8685 16.041 22.3864 17.0054 21.422C17.9697 20.4577 18.4519 19.2823 18.4519 17.8958C18.4519 16.5093 17.9697 15.3339 17.0054 14.3696C16.041 13.4053 14.8656 12.9231 13.4791 12.9231C12.0927 12.9231 10.9172 13.4053 9.95292 14.3696C8.98859 15.3339 8.50642 16.5093 8.50642 17.8958C8.50642 19.2823 8.98859 20.4577 9.95292 21.422C10.9172 22.3864 12.0927 22.8685 13.4791 22.8685ZM13.4791 21.0561C12.5868 21.0561 11.837 20.7524 11.2298 20.1452C10.6225 19.5379 10.3189 18.7881 10.3189 17.8958C10.3189 17.0035 10.6225 16.2537 11.2298 15.6464C11.837 15.0392 12.5868 14.7355 13.4791 14.7355C14.3715 14.7355 15.1212 15.0392 15.7285 15.6464C16.3358 16.2537 16.6394 17.0035 16.6394 17.8958C16.6394 18.7881 16.3358 19.5379 15.7285 20.1452C15.1212 20.7524 14.3715 21.0561 13.4791 21.0561ZM4.1843 26.9583C3.57394 26.9583 3.05729 26.7468 2.63438 26.3239C2.21146 25.901 2 25.3843 2 24.774V11.0176C2 10.4073 2.21146 9.89063 2.63438 9.46771C3.05729 9.04479 3.57394 8.83333 4.1843 8.83333H7.87434L10.1098 6.41667H18.0801V10.8782H20.4967V13.2949H24.9583V24.774C24.9583 25.3843 24.7468 25.901 24.3239 26.3239C23.901 26.7468 23.3843 26.9583 22.774 26.9583H4.1843Z" fill="#CCCCCC"/>
</g>
</svg>
