<svg width="32" height="32" viewBox="0 0 32 32" fill="none" xmlns="http://www.w3.org/2000/svg">
<path d="M27.1495 22.4173C27.7417 21.1888 28.0323 19.8369 27.9971 18.4736C27.962 17.1103 27.602 15.7751 26.9471 14.5789C26.2923 13.3827 25.3615 12.36 24.232 11.5957C23.1025 10.8315 21.807 10.3478 20.4531 10.1848C20.0026 9.13733 19.3476 8.19029 18.5265 7.39911C17.7054 6.60794 16.7347 5.98854 15.6713 5.5772C14.6078 5.16585 13.473 4.97082 12.3332 5.00353C11.1934 5.03624 10.0716 5.29602 9.03353 5.76768C7.99542 6.23934 7.06184 6.91338 6.28748 7.75034C5.51311 8.58729 4.91352 9.57034 4.52382 10.6419C4.13412 11.7135 3.96213 12.852 4.01794 13.9909C4.07375 15.1298 4.35623 16.2461 4.84883 17.2744L4.0699 19.9219C3.98281 20.2175 3.97699 20.531 4.05305 20.8296C4.1291 21.1282 4.28423 21.4008 4.5021 21.6186C4.71997 21.8365 4.99254 21.9916 5.29112 22.0677C5.58971 22.1437 5.90327 22.1379 6.19883 22.0508L8.84632 21.2719C9.69643 21.6803 10.6078 21.9464 11.5442 22.0594C11.9991 23.1253 12.6654 24.0878 13.5028 24.8888C14.3403 25.6899 15.3315 26.3128 16.4165 26.7199C17.5015 27.127 18.6578 27.3099 19.8155 27.2574C20.9732 27.205 22.1082 26.9183 23.152 26.4147L25.7995 27.1937C26.0949 27.2807 26.4083 27.2865 26.7068 27.2104C27.0053 27.1344 27.2777 26.9794 27.4956 26.7617C27.7134 26.544 27.8685 26.2716 27.9447 25.9731C28.0209 25.6747 28.0152 25.3613 27.9284 25.0658L27.1495 22.4173ZM8.92775 19.4966C8.84584 19.4968 8.76435 19.5083 8.6856 19.5308L5.71347 20.4073L6.58882 17.433C6.65108 17.2181 6.62686 16.9874 6.52133 16.7901C5.74595 15.34 5.51748 13.6596 5.87758 12.0551C6.23767 10.4507 7.16235 9.02905 8.48305 8.04939C9.80374 7.06973 11.4325 6.5973 13.0724 6.7182C14.7124 6.8391 16.2542 7.54529 17.417 8.70804C18.5797 9.87079 19.2859 11.4127 19.4068 13.0526C19.5277 14.6925 19.0553 16.3213 18.0756 17.642C17.096 18.9627 15.6743 19.8873 14.0699 20.2474C12.4654 20.6075 10.785 20.3791 9.33489 19.6037C9.21019 19.5347 9.07026 19.4979 8.92775 19.4966ZM25.4052 22.5748L26.2848 25.5501L23.3106 24.6747C23.0957 24.6125 22.865 24.6367 22.6677 24.7422C21.0893 25.5851 19.2442 25.7781 17.5255 25.2801C15.8069 24.7821 14.3507 23.6326 13.4674 22.0765C14.641 21.9541 15.7766 21.5903 16.803 21.0082C17.8295 20.4261 18.7245 19.6382 19.432 18.6939C20.1396 17.7495 20.6443 16.6692 20.9146 15.5205C21.1849 14.3719 21.2149 13.1798 21.0027 12.0191C22.0253 12.2601 22.9788 12.7329 23.7896 13.4009C24.6005 14.0689 25.247 14.9143 25.6792 15.8718C26.1115 16.8294 26.318 17.8734 26.2827 18.9234C26.2475 19.9734 25.9714 21.0012 25.4759 21.9276C25.3692 22.1261 25.345 22.3586 25.4084 22.5748H25.4052Z" fill="#597AAF"/>
</svg>
