<svg width="14" height="14" viewBox="0 0 14 14" fill="none" xmlns="http://www.w3.org/2000/svg">
<g clip-path="url(#clip0_1016_7)">
<path d="M2.63875 12.0993C2.46104 12.1344 2.28277 12.1667 2.104 12.196C1.954 12.22 1.84 12.064 1.89925 11.9245C1.96567 11.7674 2.0267 11.608 2.08225 11.4468L2.0845 11.4393C2.2705 10.8993 2.422 10.2783 2.4775 9.7C1.55725 8.7775 1 7.57 1 6.25C1 3.3505 3.6865 1 7 1C10.3135 1 13 3.3505 13 6.25C13 9.1495 10.3135 11.5 7 11.5C6.40571 11.5013 5.81384 11.4242 5.23975 11.2705C4.84975 11.4678 4.0105 11.827 2.63875 12.0993Z" fill="#CCCCCC"/>
</g>
<defs>
<clipPath id="clip0_1016_7">
<rect width="14" height="14" fill="white"/>
</clipPath>
</defs>
</svg>
