<svg width="50" height="50" viewBox="0 0 50 50" fill="none" xmlns="http://www.w3.org/2000/svg">
<rect width="50" height="50" fill="#CCCCCC"/>
<path d="M11.6667 41C11.6667 41 9 41 9 38.3333C9 35.6667 11.6667 27.6667 25 27.6667C38.3333 27.6667 41 35.6667 41 38.3333C41 41 38.3333 41 38.3333 41H11.6667ZM25 25C27.1217 25 29.1566 24.1571 30.6569 22.6569C32.1571 21.1566 33 19.1217 33 17C33 14.8783 32.1571 12.8434 30.6569 11.3431C29.1566 9.84286 27.1217 9 25 9C22.8783 9 20.8434 9.84286 19.3431 11.3431C17.8429 12.8434 17 14.8783 17 17C17 19.1217 17.8429 21.1566 19.3431 22.6569C20.8434 24.1571 22.8783 25 25 25Z" fill="white"/>
</svg>
