<svg width="268" height="268" viewBox="0 0 268 268" fill="none" xmlns="http://www.w3.org/2000/svg">
<rect width="268" height="268" fill="white"/>
<path d="M52.1447 169.778C33.1796 164.816 30.2336 141.768 40.6473 126.023C40.8597 125.702 40.8751 125.284 40.6862 124.949C29.5795 105.239 31.2514 86.5383 59.6183 72.6853C59.8577 72.5684 60.0505 72.3529 60.1378 72.1012C66.5396 53.6435 71.6611 46.298 92.8106 44.0703C93.2199 44.0271 93.5722 43.7515 93.72 43.3674C95.0117 40.0096 102.612 24.3922 132.5 23.5C161.725 22.6276 167.738 37.738 168.796 41.6083C168.933 42.1093 169.407 42.4733 169.926 42.4458C192.548 41.2476 203.727 50.0594 203.995 70.2509C204.001 70.691 204.296 71.0893 204.716 71.2214C227.021 78.2378 234.816 91.588 227.151 116.024C227.058 116.32 227.106 116.653 227.28 116.91C241.268 137.659 232.869 162.955 212.034 165.929C211.704 165.976 211.407 166.185 211.255 166.481C201.002 186.506 190.507 192.801 171.915 179.793C171.658 179.613 171.324 179.556 171.025 179.651L151 186L159.261 227.304C159.385 227.923 158.911 228.5 158.28 228.5H106.234C105.598 228.5 105.124 227.915 105.256 227.293L114 186L94.1949 179.72C93.7808 179.589 93.3288 179.745 93.0632 180.089C81.7057 194.787 51.5 187.738 52.9474 170.936C52.9925 170.413 52.653 169.911 52.1447 169.778Z" fill="#7997C5"/>
<path d="M151 186L171.025 179.651C171.324 179.556 171.658 179.613 171.915 179.793C190.507 192.801 201.002 186.506 211.255 166.481C211.407 166.185 211.704 165.976 212.034 165.929C232.869 162.955 241.268 137.659 227.28 116.91C227.106 116.653 227.058 116.32 227.151 116.024C234.816 91.588 227.021 78.2377 204.716 71.2214C204.296 71.0893 204.001 70.691 203.995 70.2509C203.727 50.0594 192.548 41.2476 169.926 42.4458C169.407 42.4733 168.933 42.1093 168.796 41.6083C167.738 37.738 161.725 22.6276 132.5 23.5C102.612 24.3922 95.0117 40.0096 93.72 43.3674C93.5722 43.7515 93.2199 44.0271 92.8106 44.0703C71.6611 46.298 66.5396 53.6435 60.1378 72.1012C60.0505 72.3529 59.8577 72.5684 59.6183 72.6853C31.2514 86.5383 29.5795 105.239 40.6862 124.949C40.8751 125.284 40.8597 125.702 40.6473 126.023C30.2336 141.768 33.1796 164.816 52.1447 169.778C52.653 169.911 52.9925 170.413 52.9474 170.936C51.5 187.738 81.7057 194.787 93.0632 180.089C93.3288 179.745 93.7808 179.589 94.1949 179.72L114 186M151 186L159.261 227.304C159.385 227.923 158.911 228.5 158.28 228.5H106.234C105.598 228.5 105.124 227.915 105.256 227.293L114 186M151 186H114" stroke="black" stroke-width="6"/>
<path d="M108.5 225.5L116.428 189H148.572L156 225.5H108.5Z" fill="#5B5546"/>
<path d="M178.5 124.5C178.5 149.905 157.905 170.5 132.5 170.5C107.095 170.5 86.5 149.905 86.5 124.5C86.5 99.0949 107.095 78.5 132.5 78.5C157.905 78.5 178.5 99.0949 178.5 124.5Z" fill="#FFF3D6" stroke="black" stroke-width="7"/>
<path d="M124 125.5C124 126.774 124.073 127.889 124.221 128.876C125.384 136.636 138.396 136.928 140.059 129.259C140.292 128.184 140.553 126.953 141 125.5" stroke="black" stroke-width="6" stroke-linecap="round"/>
<ellipse cx="104" cy="136" rx="7" ry="6" fill="#FFBBC8"/>
<ellipse cx="161" cy="135" rx="7" ry="6" fill="#FFBBC8"/>
<ellipse cx="108.5" cy="120.5" rx="6.5" ry="8.5" fill="black"/>
<ellipse cx="156.5" cy="120.5" rx="6.5" ry="8.5" fill="black"/>
</svg>
