<svg width="32" height="32" viewBox="0 0 32 32" fill="none" xmlns="http://www.w3.org/2000/svg">
<g clip-path="url(#clip0_896_244)">
<mask id="mask0_896_244" style="mask-type:luminance" maskUnits="userSpaceOnUse" x="0" y="0" width="32" height="32">
<path d="M32 0H0V32H32V0Z" fill="white"/>
</mask>
<g mask="url(#mask0_896_244)">
<path d="M16 26.651C15.8343 26.6504 15.6734 26.5951 15.5424 26.4935C11.3718 23.253 8.49879 20.4625 6.48848 17.7095C3.92306 14.1915 3.33796 10.9434 4.74819 8.05547C5.75335 5.99263 8.64132 4.30486 12.0169 5.28752C13.6263 5.7524 15.0304 6.74935 16 8.11548C16.9696 6.74935 18.3737 5.7524 19.9832 5.28752C23.3512 4.31987 26.2467 5.99263 27.2518 8.05547C28.662 10.9434 28.0769 14.1915 25.5115 17.7095C23.5013 20.4625 20.6282 23.253 16.4576 26.4935C16.3267 26.5951 16.1658 26.6504 16 26.651ZM10.0966 6.51021C9.29336 6.47896 8.49683 6.66703 7.79244 7.05424C7.08805 7.44146 6.50243 8.01319 6.09841 8.70808C4.93572 11.0935 5.4608 13.7489 7.70367 16.8169C10.0872 19.8914 12.8783 22.6269 16 24.9483C19.1212 22.6291 21.9123 19.8962 24.2963 16.8244C26.5467 13.7489 27.0643 11.0935 25.9016 8.71557C25.1515 7.21533 22.9011 6.02264 20.3958 6.72776C19.5924 6.96517 18.8476 7.36814 18.2094 7.91075C17.5712 8.45336 17.0536 9.12357 16.6901 9.87827C16.6336 10.0158 16.5375 10.1335 16.414 10.2163C16.2904 10.2992 16.145 10.3434 15.9963 10.3434C15.8476 10.3434 15.7022 10.2992 15.5786 10.2163C15.4551 10.1335 15.3589 10.0158 15.3024 9.87827C14.9416 9.12168 14.425 8.4499 13.7863 7.90696C13.1477 7.36401 12.4016 6.96217 11.5968 6.72776C11.1092 6.58613 10.6043 6.51293 10.0966 6.51021Z" fill="#CCCCCC"/>
</g>
</g>
<defs>
<clipPath id="clip0_896_244">
<rect width="32" height="32" fill="white"/>
</clipPath>
</defs>
</svg>
