<svg width="32" height="32" viewBox="0 0 32 32" fill="none" xmlns="http://www.w3.org/2000/svg">
<path d="M28 12.2211C28.0018 13.0373 27.8418 13.8457 27.5292 14.5997C27.2166 15.3537 26.7575 16.0381 26.1787 16.6136L16.6116 26.3221C16.5319 26.4031 16.4368 26.4674 16.332 26.5113C16.2271 26.5552 16.1146 26.5778 16.001 26.5778C15.8873 26.5778 15.7748 26.5552 15.6699 26.5113C15.5651 26.4674 15.47 26.4031 15.3903 26.3221L5.82322 16.6136C4.65684 15.4486 4.00101 13.868 4 12.2195C3.999 10.571 4.6529 8.98961 5.81786 7.82322C6.98283 6.65684 8.56342 6.00101 10.2119 6C11.8604 5.999 13.4418 6.6529 14.6082 7.81787L16.001 9.11954L17.4033 7.81358C18.2738 6.94749 19.3812 6.3587 20.586 6.12154C21.7908 5.88437 23.0388 6.00946 24.1725 6.48102C25.3063 6.95257 26.2749 7.74945 26.9561 8.77106C27.6373 9.79266 28.0005 10.9932 28 12.2211Z" fill="#597AAF"/>
</svg>
