<svg width="32" height="32" viewBox="0 0 32 32" fill="none" xmlns="http://www.w3.org/2000/svg">
<path d="M26.1814 7.82881C25.017 6.66733 23.44 6.01418 21.7954 6.01217C20.1508 6.01016 18.5723 6.65947 17.405 7.8181L16.0037 9.11976L14.6014 7.81381C13.4344 6.65014 11.853 5.9977 10.205 6.00001C8.55705 6.00232 6.97748 6.65919 5.81381 7.82613C4.65014 8.99307 3.9977 10.5745 4.00001 12.2225C4.00232 13.8705 4.65919 15.45 5.82613 16.6137L15.3984 26.3264C15.4782 26.4073 15.5732 26.4716 15.6781 26.5155C15.7829 26.5594 15.8954 26.582 16.0091 26.582C16.1228 26.582 16.2353 26.5594 16.3401 26.5155C16.4449 26.4716 16.54 26.4073 16.6198 26.3264L26.1814 16.6137C27.3459 15.4485 28 13.8686 28 12.2213C28 10.5739 27.3459 8.994 26.1814 7.82881ZM24.9654 15.4095L16.0037 24.4987L7.03673 15.401C6.19285 14.5571 5.71877 13.4125 5.71877 12.2191C5.71877 11.0257 6.19285 9.88114 7.03673 9.03727C7.88061 8.19339 9.02515 7.7193 10.2186 7.7193C11.412 7.7193 12.5565 8.19339 13.4004 9.03727L13.4218 9.05869L15.4199 10.9174C15.5785 11.065 15.7871 11.1471 16.0037 11.1471C16.2204 11.1471 16.429 11.065 16.5876 10.9174L18.5856 9.05869L18.6071 9.03727C19.4515 8.19396 20.5964 7.72064 21.7898 7.72145C22.9832 7.72225 24.1274 8.19711 24.9708 9.04155C25.8141 9.886 26.2874 11.0309 26.2866 12.2243C26.2858 13.4177 25.8109 14.5619 24.9665 15.4052L24.9654 15.4095Z" fill="#597AAF"/>
</svg>
