<svg width="32" height="32" viewBox="0 0 32 32" fill="none" xmlns="http://www.w3.org/2000/svg">
<g clip-path="url(#clip0_896_250)">
<mask id="mask0_896_250" style="mask-type:luminance" maskUnits="userSpaceOnUse" x="0" y="0" width="32" height="32">
<path d="M32 0H0V32H32V0Z" fill="white"/>
</mask>
<g mask="url(#mask0_896_250)">
<path d="M16 26.651C15.8343 26.6504 15.6734 26.5951 15.5424 26.4935C11.3718 23.2529 8.49879 20.4625 6.48848 17.7095C3.92306 14.1915 3.33796 10.9434 4.74819 8.05547C5.75335 5.99263 8.64132 4.30486 12.0169 5.28752C13.6263 5.7524 15.0304 6.74935 16 8.11548C16.9696 6.74935 18.3737 5.7524 19.9832 5.28752C23.3512 4.31987 26.2467 5.99263 27.2518 8.05547C28.662 10.9434 28.0769 14.1915 25.5115 17.7095C23.5013 20.4625 20.6282 23.2529 16.4576 26.4935C16.3267 26.5951 16.1658 26.6504 16 26.651Z" fill="#FF8989"/>
</g>
</g>
<defs>
<clipPath id="clip0_896_250">
<rect width="32" height="32" fill="white"/>
</clipPath>
</defs>
</svg>
