<svg width="32" height="32" viewBox="0 0 32 32" fill="none" xmlns="http://www.w3.org/2000/svg">
<path d="M26.7495 14.6149V24.1103C26.7495 24.7672 26.5156 25.3296 26.0478 25.7974C25.58 26.2652 25.0177 26.4991 24.3608 26.4991H7.63924C6.98233 26.4991 6.41997 26.2652 5.95216 25.7974C5.48436 25.3296 5.25046 24.7672 5.25046 24.1103V14.6149C4.79261 14.1968 4.43926 13.6594 4.19043 13.0024C3.9416 12.3455 3.93662 11.6289 4.1755 10.8525L5.42962 6.79159C5.58887 6.27402 5.87254 5.84603 6.28062 5.50762C6.68871 5.16921 7.16149 5 7.69896 5H24.301C24.8385 5 25.3063 5.16423 25.7044 5.49269C26.1026 5.82115 26.3912 6.25411 26.5704 6.79159L27.8245 10.8525C28.0634 11.6289 28.0584 12.3356 27.8096 12.9726C27.5607 13.6096 27.2074 14.157 26.7495 14.6149ZM18.6277 13.3608C19.1651 13.3608 19.5732 13.1766 19.8519 12.8083C20.1306 12.4401 20.2401 12.027 20.1804 11.5692L19.5235 7.38879H17.1944V11.808C17.1944 12.2261 17.3337 12.5894 17.6124 12.8979C17.8911 13.2065 18.2295 13.3608 18.6277 13.3608ZM13.2529 13.3608C13.7107 13.3608 14.084 13.2065 14.3726 12.8979C14.6613 12.5894 14.8056 12.2261 14.8056 11.808V7.38879H12.4765L11.8196 11.5692C11.74 12.0469 11.8445 12.465 12.1332 12.8233C12.4218 13.1816 12.795 13.3608 13.2529 13.3608ZM7.93784 13.3608C8.29616 13.3608 8.60969 13.2314 8.87843 12.9726C9.14717 12.7138 9.3114 12.3853 9.37111 11.9872L10.028 7.38879H7.69896L6.50457 11.39C6.38513 11.7881 6.44983 12.2161 6.69866 12.674C6.94749 13.1318 7.36055 13.3608 7.93784 13.3608ZM24.0622 13.3608C24.6394 13.3608 25.0575 13.1318 25.3163 12.674C25.5751 12.2161 25.6348 11.7881 25.4954 11.39L24.2413 7.38879H21.972L22.6289 11.9872C22.6886 12.3853 22.8528 12.7138 23.1216 12.9726C23.3903 13.2314 23.7038 13.3608 24.0622 13.3608ZM7.63924 24.1103H24.3608V15.6898C24.2612 15.7296 24.1965 15.7495 24.1667 15.7495H24.0622C23.5247 15.7495 23.0519 15.66 22.6438 15.4808C22.2357 15.3016 21.8326 15.013 21.4345 14.6149C21.0762 14.9732 20.6681 15.2519 20.2102 15.4509C19.7524 15.65 19.2647 15.7495 18.7471 15.7495C18.2096 15.7495 17.707 15.65 17.2392 15.4509C16.7714 15.2519 16.3583 14.9732 16 14.6149C15.6616 14.9732 15.2684 15.2519 14.8205 15.4509C14.3726 15.65 13.8899 15.7495 13.3723 15.7495C12.795 15.7495 12.2725 15.65 11.8047 15.4509C11.3369 15.2519 10.9238 14.9732 10.5655 14.6149C10.1475 15.0329 9.73441 15.3265 9.32633 15.4957C8.91824 15.6649 8.45541 15.7495 7.93784 15.7495H7.80347C7.75371 15.7495 7.69896 15.7296 7.63924 15.6898V24.1103Z" fill="#597AAF"/>
</svg>
