<svg width="32" height="32" viewBox="0 0 32 32" fill="none" xmlns="http://www.w3.org/2000/svg">
<path d="M27.1065 4.89332C26.8543 4.64287 26.5379 4.46681 26.1921 4.38448C25.8463 4.30216 25.4845 4.31675 25.1465 4.42665L5.63984 10.9333C5.27807 11.048 4.95838 11.2672 4.72116 11.5634C4.48393 11.8597 4.33981 12.2195 4.307 12.5976C4.27418 12.9757 4.35415 13.355 4.53679 13.6877C4.71943 14.0203 4.99656 14.2914 5.33317 14.4667L13.4265 18.4667L17.4265 26.5867C17.5873 26.9045 17.8333 27.1713 18.1371 27.3574C18.4408 27.5434 18.7903 27.6412 19.1465 27.64H19.2798C19.6613 27.6119 20.0255 27.4697 20.3251 27.2319C20.6247 26.9942 20.8459 26.6718 20.9598 26.3067L27.5598 6.85332C27.6777 6.51723 27.6977 6.15457 27.6174 5.80758C27.5371 5.46059 27.36 5.14353 27.1065 4.89332ZM6.46651 12.7733L23.4932 7.09332L14.0398 16.5467L6.46651 12.7733ZM19.2398 25.5333L15.4532 17.96L24.9065 8.50665L19.2398 25.5333Z" fill="#597AAF"/>
</svg>
