<svg width="192" height="192" viewBox="0 0 192 192" fill="none" xmlns="http://www.w3.org/2000/svg">
<path d="M26.851 132.961C11.0699 128.721 8.6114 109.495 17.2738 96.3009C17.4851 95.9791 17.5008 95.5618 17.3124 95.2262C8.03777 78.7035 9.47001 63.03 33.2166 51.4079C33.4559 51.2908 33.6484 51.0758 33.7358 50.8241C39.0963 35.3856 43.4075 29.2184 61.0717 27.3345C61.4809 27.2909 61.8342 27.0103 61.9857 26.6276C63.1847 23.6003 69.7178 10.7716 94.5455 10.0305C118.788 9.30686 124.031 21.6647 125.021 25.1187C125.164 25.618 125.635 25.9761 126.154 25.9498C145.03 24.9905 154.38 32.3668 154.647 49.2135C154.654 49.6536 154.947 50.0506 155.367 50.1834C174.009 56.084 180.529 67.2828 174.138 87.7359C174.045 88.0319 174.094 88.3639 174.267 88.6214C185.946 106.024 178.922 127.199 161.491 129.752C161.161 129.8 160.864 130.008 160.712 130.305C152.118 147.054 143.31 152.323 127.746 141.465C127.489 141.285 127.155 141.229 126.856 141.323L110.098 146.637L117.004 181.169C117.128 181.788 116.655 182.365 116.023 182.365H72.6615C72.0258 182.365 71.5515 181.78 71.6832 181.158L78.9935 146.637L62.4549 141.393C62.0408 141.262 61.5895 141.418 61.3213 141.76C51.7526 153.952 26.6318 148.104 27.6575 134.121C27.6959 133.597 27.3584 133.098 26.851 132.961Z" fill="#7997C5"/>
<path d="M110.098 146.637L126.856 141.323C127.155 141.229 127.489 141.285 127.746 141.465C143.31 152.323 152.118 147.054 160.712 130.305C160.864 130.008 161.161 129.8 161.491 129.752C178.922 127.199 185.946 106.024 174.267 88.6214C174.094 88.3639 174.045 88.0319 174.138 87.7359C180.529 67.2828 174.009 56.084 155.367 50.1834C154.947 50.0506 154.654 49.6536 154.647 49.2135C154.38 32.3668 145.03 24.9905 126.154 25.9498C125.635 25.9761 125.164 25.618 125.021 25.1187C124.031 21.6647 118.788 9.30686 94.5455 10.0305C69.7178 10.7716 63.1847 23.6003 61.9857 26.6276C61.8342 27.0103 61.4809 27.2909 61.0717 27.3345C43.4075 29.2184 39.0963 35.3856 33.7358 50.8241C33.6484 51.0758 33.4559 51.2908 33.2166 51.4079C9.47001 63.03 8.03777 78.7035 17.3124 95.2262C17.5008 95.5618 17.4851 95.9791 17.2738 96.3009C8.6114 109.495 11.0699 128.721 26.851 132.961C27.3584 133.098 27.6959 133.597 27.6575 134.121C26.6318 148.104 51.7526 153.952 61.3213 141.76C61.5895 141.418 62.0408 141.262 62.4549 141.393L78.9935 146.637M110.098 146.637L117.004 181.169C117.128 181.788 116.655 182.365 116.023 182.365H72.6615C72.0258 182.365 71.5515 181.78 71.6832 181.158L78.9935 146.637M110.098 146.637H78.9935" stroke="black" stroke-width="6"/>
<path d="M74.3699 179.843L81.0344 149.159H108.056L114.301 179.843H74.3699Z" fill="#5B5546"/>
<path d="M132.658 94.9367C132.658 115.986 115.594 133.049 94.5456 133.049C73.4966 133.049 56.4331 115.986 56.4331 94.9367C56.4331 73.8878 73.4966 56.8243 94.5456 56.8243C115.594 56.8243 132.658 73.8878 132.658 94.9367Z" fill="#FFF3D6" stroke="black" stroke-width="7"/>
<path d="M87.4001 95.7773C87.4003 96.085 87.4054 96.3818 87.4156 96.6681C87.6953 104.51 99.3927 104.635 101.338 97.0329C101.44 96.637 101.555 96.2194 101.691 95.7773" stroke="black" stroke-width="6" stroke-linecap="round"/>
<ellipse cx="70.587" cy="104.604" rx="5.88459" ry="5.04393" fill="#FFBBC8"/>
<ellipse cx="118.504" cy="103.764" rx="5.88459" ry="5.04393" fill="#FFBBC8"/>
<ellipse cx="74.37" cy="91.5741" rx="5.46426" ry="7.14557" fill="black"/>
<ellipse cx="114.721" cy="91.5741" rx="5.46426" ry="7.14557" fill="black"/>
</svg>
