<svg width="24" height="24" viewBox="0 0 24 24" fill="none" xmlns="http://www.w3.org/2000/svg">
<g clip-path="url(#clip0_213_3491)">
<path d="M12 21.6199C11.8527 21.6194 11.7097 21.5702 11.5933 21.4799C7.88667 18.5999 5.33333 16.1199 3.54667 13.6732C1.26667 10.5466 0.746666 7.65988 2 5.09322C2.89333 3.25988 5.46 1.75988 8.46 2.63322C9.89036 3.04638 11.1383 3.93241 12 5.14655C12.8617 3.93241 14.1096 3.04638 15.54 2.63322C18.5333 1.77322 21.1067 3.25988 22 5.09322C23.2533 7.65988 22.7333 10.5466 20.4533 13.6732C18.6667 16.1199 16.1133 18.5999 12.4067 21.4799C12.2903 21.5702 12.1473 21.6194 12 21.6199ZM6.75333 3.71988C6.0395 3.6921 5.33158 3.85925 4.70556 4.20338C4.07954 4.54752 3.55907 5.05564 3.2 5.67322C2.16667 7.79322 2.63333 10.1532 4.62667 12.8799C6.74505 15.6123 9.22561 18.0435 12 20.1066C14.7739 18.0455 17.2545 15.6166 19.3733 12.8866C21.3733 10.1532 21.8333 7.79322 20.8 5.67988C20.1333 4.34655 18.1333 3.28655 15.9067 3.91322C15.1927 4.12422 14.5308 4.48236 13.9636 4.9646C13.3964 5.44684 12.9364 6.04249 12.6133 6.71322C12.5631 6.83549 12.4777 6.94007 12.3679 7.01367C12.2581 7.08728 12.1289 7.12657 11.9967 7.12657C11.8645 7.12657 11.7353 7.08728 11.6255 7.01367C11.5157 6.94007 11.4302 6.83549 11.38 6.71322C11.0593 6.04081 10.6002 5.44377 10.0326 4.96123C9.46504 4.47869 8.8019 4.12155 8.08667 3.91322C7.65332 3.78735 7.20458 3.72229 6.75333 3.71988Z" fill="#CCCCCC"/>
</g>
<defs>
<clipPath id="clip0_213_3491">
<rect width="24" height="24" fill="white"/>
</clipPath>
</defs>
</svg>
