<svg width="18" height="20" viewBox="0 0 18 20" fill="none" xmlns="http://www.w3.org/2000/svg">
<path d="M12.8313 10.6049C14.3081 11.3029 15.5673 12.3894 16.4741 13.7481C17.381 15.1067 17.9012 16.6863 17.9793 18.3179C17.9896 18.4674 17.97 18.6174 17.9215 18.7592C17.873 18.901 17.7967 19.0316 17.6971 19.1435C17.5974 19.2554 17.4764 19.3462 17.3412 19.4107C17.2059 19.4752 17.0592 19.512 16.9095 19.519C16.7599 19.526 16.6103 19.503 16.4696 19.4514C16.329 19.3998 16.2 19.3207 16.0904 19.2186C15.9807 19.1165 15.8926 18.9935 15.8311 18.8569C15.7696 18.7202 15.736 18.5727 15.7323 18.4229C15.6506 16.6897 14.9045 15.0546 13.649 13.8569C12.3935 12.6592 10.725 11.991 8.98984 11.991C7.2547 11.991 5.5862 12.6592 4.3307 13.8569C3.07519 15.0546 2.32911 16.6897 2.24734 18.4229C2.22714 18.7163 2.09286 18.9901 1.87327 19.1857C1.65368 19.3813 1.36624 19.4831 1.07249 19.4694C0.77874 19.4557 0.502043 19.3275 0.301651 19.1122C0.101258 18.897 -0.00689861 18.6119 0.000341397 18.3179C0.0781327 16.6864 0.598139 15.1068 1.50469 13.7482C2.41125 12.3896 3.67022 11.303 5.14684 10.6049C4.20036 9.81545 3.52004 8.75359 3.19842 7.56378C2.8768 6.37397 2.9295 5.11397 3.34934 3.95517C3.76918 2.79637 4.53579 1.79503 5.54489 1.08734C6.55398 0.379663 7.75658 0 8.98909 0C10.2216 0 11.4242 0.379663 12.4333 1.08734C13.4424 1.79503 14.209 2.79637 14.6288 3.95517C15.0487 5.11397 15.1014 6.37397 14.7798 7.56378C14.4581 8.75359 13.7778 9.81545 12.8313 10.6049ZM12.7398 5.99542C12.7398 5.00086 12.3448 4.04703 11.6415 3.34377C10.9382 2.64051 9.9844 2.24542 8.98984 2.24542C7.99528 2.24542 7.04145 2.64051 6.33819 3.34377C5.63493 4.04703 5.23984 5.00086 5.23984 5.99542C5.23984 6.98998 5.63493 7.94381 6.33819 8.64707C7.04145 9.35033 7.99528 9.74542 8.98984 9.74542C9.9844 9.74542 10.9382 9.35033 11.6415 8.64707C12.3448 7.94381 12.7398 6.98998 12.7398 5.99542Z" fill="current"/>
</svg>
