<svg width="32" height="32" viewBox="0 0 32 32" fill="none" xmlns="http://www.w3.org/2000/svg">
<path d="M4.66673 10.6668C4.667 9.40265 4.99403 8.16007 5.61609 7.05961C6.23815 5.95914 7.13412 5.03817 8.21705 4.38605C9.29998 3.73394 10.5331 3.37283 11.7967 3.33778C13.0603 3.30273 14.3116 3.59492 15.429 4.18599C16.5464 4.77707 17.4921 5.64696 18.1742 6.71124C18.8563 7.77553 19.2517 8.99807 19.322 10.2602C19.3924 11.5224 19.1353 12.7813 18.5756 13.9148C18.016 15.0483 17.1729 16.0179 16.1281 16.7294C18.3781 17.5547 20.3296 19.0344 21.7316 20.9781C23.1335 22.9218 23.9217 25.2406 23.9947 27.6361C23.9916 27.8944 23.8888 28.1415 23.7079 28.3257C23.5269 28.51 23.2817 28.6172 23.0235 28.6249C22.7653 28.6327 22.5141 28.5404 22.3224 28.3673C22.1307 28.1942 22.0133 27.9537 21.9947 27.6961C21.9153 25.098 20.8275 22.633 18.9616 20.8233C17.0958 19.0136 14.5987 18.0016 11.9994 18.0016C9.40013 18.0016 6.90299 19.0136 5.03717 20.8233C3.17135 22.633 2.08347 25.098 2.00407 27.6961C1.99072 27.9572 1.87564 28.2027 1.68348 28.38C1.49132 28.5573 1.23737 28.6523 0.976031 28.6446C0.714691 28.6369 0.466749 28.5272 0.285321 28.339C0.103894 28.1507 0.00341122 27.8989 0.00540006 27.6374C0.0781352 25.2417 0.866209 22.9226 2.26818 20.9787C3.67015 19.0347 5.62186 17.5548 7.87207 16.7294C6.88384 16.0569 6.07512 15.1529 5.51643 14.0962C4.95773 13.0395 4.66602 11.8621 4.66673 10.6668ZM12.0001 5.33343C10.5856 5.33343 9.22902 5.89534 8.22883 6.89553C7.22864 7.89572 6.66673 9.25228 6.66673 10.6668C6.66673 12.0813 7.22864 13.4378 8.22883 14.438C9.22902 15.4382 10.5856 16.0001 12.0001 16.0001C13.4146 16.0001 14.7711 15.4382 15.7713 14.438C16.7715 13.4378 17.3334 12.0813 17.3334 10.6668C17.3334 9.25228 16.7715 7.89572 15.7713 6.89553C14.7711 5.89534 13.4146 5.33343 12.0001 5.33343ZM23.0534 10.6668C22.8561 10.6668 22.6641 10.6801 22.4747 10.7068C22.3425 10.7304 22.2069 10.7272 22.076 10.6974C21.9451 10.6675 21.8215 10.6115 21.7127 10.5329C21.6038 10.4542 21.512 10.3544 21.4425 10.2395C21.3731 10.1245 21.3275 9.99678 21.3085 9.86384C21.2895 9.7309 21.2975 9.5955 21.332 9.46571C21.3665 9.33591 21.4267 9.2144 21.5092 9.1084C21.5916 9.00241 21.6946 8.91411 21.8119 8.84877C21.9293 8.78343 22.0585 8.74239 22.1921 8.7281C23.5182 8.53637 24.8704 8.79103 26.0359 9.452C27.2014 10.113 28.114 11.1427 28.6302 12.3792C29.1464 13.6157 29.2367 14.9887 28.8871 16.2822C28.5374 17.5756 27.7676 18.7161 26.6987 19.5241C28.2699 20.2276 29.604 21.3708 30.5399 22.8156C31.4758 24.2605 31.9737 25.9453 31.9734 27.6668C31.9734 27.932 31.868 28.1863 31.6805 28.3739C31.493 28.5614 31.2386 28.6668 30.9734 28.6668C30.7082 28.6668 30.4538 28.5614 30.2663 28.3739C30.0788 28.1863 29.9734 27.932 29.9734 27.6668C29.9732 26.179 29.4939 24.7308 28.6063 23.5367C27.7187 22.3427 26.47 21.4663 25.0454 21.0374L24.3334 20.8241V18.5894L24.8801 18.3108C25.6904 17.9003 26.3388 17.2287 26.7205 16.4044C27.1022 15.5801 27.195 14.6513 26.9838 13.7678C26.7727 12.8843 26.27 12.0977 25.5569 11.5351C24.8437 10.9724 23.9618 10.6665 23.0534 10.6668Z" fill="#9A9A9A"/>
</svg>
